<?xml version="1.0" encoding="utf-8"?><!-- Generator: Iparigrafika Gear Generator by Abel Vincze http://geargenerator.com/ --><svg version="1.2" class="svggear" xmlns="http://www.w3.org/2000/svg" xmlns:xlink="http://www.w3.org/1999/xlink" x="0px" y="0px" width="250px" height="250px" viewBox="-125 -125 250 250" overflow="scroll" xml:space="preserve"><polygon id="gearpoly0" data-id="0" class="gear" fill="#ddd" stroke="#444" stroke-width="1" stroke-miterlimit="10" points="71.25,0 89.1142,-0.0002 89.2667,-0.0068 89.5879,-0.0341 90.0758,-0.0968 90.7276,-0.2094 91.5397,-0.3863 92.5073,-0.6417 93.6249,-0.9894 94.8859,-1.4428 96.2829,-2.015 97.8076,-2.7186 99.451,-3.5657 101.2032,-4.5678 103.0534,-5.736 104.9903,-7.0804 107.0017,-8.6107 109.0748,-10.3357 111.1963,-12.2636 113.3522,-14.4015 115.5279,-16.7561 117.7084,-19.3328 119.8783,-22.1362 122.0217,-25.1701 121.8431,-27.9151 121.4423,-29.6103 120.3726,-32.1445 117.0973,-33.8972 113.9017,-35.432 110.7981,-36.7592 107.7983,-37.89 104.9132,-38.836 102.153,-39.6096 99.5268,-40.2235 97.043,-40.6909 94.7091,-41.0254 92.5317,-41.2412 90.5162,-41.3525 88.6675,-41.3739 86.9891,-41.3201 85.4838,-41.206 84.1533,-41.0467 82.9984,-40.857 82.0188,-40.652 81.2135,-40.4465 80.5802,-40.2552 80.1159,-40.0928 79.8165,-39.9734 79.6772,-39.911 63.7047,-31.9104 50.3814,-50.3814 63.0132,-63.0134 63.1163,-63.1259 63.3241,-63.3723 63.6248,-63.7616 64.006,-64.3022 64.4552,-65.0015 64.9588,-65.8663 65.5032,-66.9024 66.0742,-68.1147 66.6575,-69.5071 67.2381,-71.0828 67.8012,-72.8438 68.3315,-74.7914 68.8138,-76.9257 69.2328,-79.2459 69.573,-81.7503 69.8191,-84.436 69.956,-87.2993 69.9687,-90.3355 69.8422,-93.5389 69.5621,-96.9027 69.1141,-100.4194 68.4844,-104.0803 66.4171,-105.8951 64.9351,-106.8103 62.3866,-107.8459 58.8314,-106.7693 55.4865,-105.5948 52.3534,-104.3388 49.4326,-103.0172 46.7236,-101.6461 44.2248,-100.2413 41.9338,-98.8183 39.847,-97.3925 37.9601,-95.9788 36.2678,-94.5917 34.764,-93.2453 33.4416,-91.9531 32.2929,-90.7283 31.3091,-89.5832 30.481,-88.5297 29.7984,-87.579 29.2508,-86.7413 28.8266,-86.0266 28.514,-85.4435 28.3006,-85.0004 28.1734,-84.7043 28.119,-84.5616 22.482,-67.6101 0,-71.25 -0.0002,-89.1142 -0.0068,-89.2667 -0.0341,-89.5879 -0.0968,-90.0758 -0.2094,-90.7276 -0.3863,-91.5397 -0.6417,-92.5073 -0.9894,-93.6249 -1.4428,-94.8859 -2.015,-96.2829 -2.7186,-97.8076 -3.5657,-99.451 -4.5678,-101.2032 -5.736,-103.0534 -7.0804,-104.9903 -8.6107,-107.0017 -10.3357,-109.0748 -12.2636,-111.1963 -14.4015,-113.3522 -16.7561,-115.5279 -19.3328,-117.7084 -22.1362,-119.8783 -25.1701,-122.0217 -27.9151,-121.8431 -29.6103,-121.4423 -32.1445,-120.3726 -33.8972,-117.0973 -35.432,-113.9017 -36.7592,-110.7981 -37.89,-107.7983 -38.836,-104.9132 -39.6096,-102.153 -40.2235,-99.5268 -40.6909,-97.043 -41.0254,-94.7091 -41.2412,-92.5317 -41.3525,-90.5162 -41.3739,-88.6675 -41.3201,-86.9891 -41.206,-85.4838 -41.0467,-84.1533 -40.857,-82.9984 -40.652,-82.0188 -40.4465,-81.2135 -40.2552,-80.5802 -40.0928,-80.1159 -39.9734,-79.8165 -39.911,-79.6772 -31.9104,-63.7047 -50.3814,-50.3814 -63.0134,-63.0132 -63.1259,-63.1163 -63.3723,-63.3241 -63.7616,-63.6248 -64.3022,-64.006 -65.0015,-64.4552 -65.8663,-64.9588 -66.9024,-65.5032 -68.1147,-66.0742 -69.5071,-66.6575 -71.0828,-67.2381 -72.8438,-67.8012 -74.7914,-68.3315 -76.9257,-68.8138 -79.2459,-69.2328 -81.7503,-69.573 -84.436,-69.8191 -87.2993,-69.956 -90.3355,-69.9687 -93.5389,-69.8422 -96.9027,-69.5621 -100.4194,-69.1141 -104.0803,-68.4844 -105.8951,-66.4171 -106.8103,-64.9351 -107.8459,-62.3866 -106.7693,-58.8314 -105.5948,-55.4865 -104.3388,-52.3534 -103.0172,-49.4326 -101.6461,-46.7236 -100.2413,-44.2248 -98.8183,-41.9338 -97.3925,-39.847 -95.9788,-37.9601 -94.5917,-36.2678 -93.2453,-34.764 -91.9531,-33.4416 -90.7283,-32.2929 -89.5832,-31.3091 -88.5297,-30.481 -87.579,-29.7984 -86.7413,-29.2508 -86.0266,-28.8266 -85.4435,-28.514 -85.0004,-28.3006 -84.7043,-28.1734 -84.5616,-28.119 -67.6101,-22.482 -71.25,0 -89.1142,0.0002 -89.2667,0.0068 -89.5879,0.0341 -90.0758,0.0968 -90.7276,0.2094 -91.5397,0.3863 -92.5073,0.6417 -93.6249,0.9894 -94.8859,1.4428 -96.2829,2.015 -97.8076,2.7186 -99.451,3.5657 -101.2032,4.5678 -103.0534,5.736 -104.9903,7.0804 -107.0017,8.6107 -109.0748,10.3357 -111.1963,12.2636 -113.3522,14.4015 -115.5279,16.7561 -117.7084,19.3328 -119.8783,22.1362 -122.0217,25.1701 -121.8431,27.9151 -121.4423,29.6103 -120.3726,32.1445 -117.0973,33.8972 -113.9017,35.432 -110.7981,36.7592 -107.7983,37.89 -104.9132,38.836 -102.153,39.6096 -99.5268,40.2235 -97.043,40.6909 -94.7091,41.0254 -92.5317,41.2412 -90.5162,41.3525 -88.6675,41.3739 -86.9891,41.3201 -85.4838,41.206 -84.1533,41.0467 -82.9984,40.857 -82.0188,40.652 -81.2135,40.4465 -80.5802,40.2552 -80.1159,40.0928 -79.8165,39.9734 -79.6772,39.911 -63.7047,31.9104 -50.3814,50.3814 -63.0132,63.0134 -63.1163,63.1259 -63.3241,63.3723 -63.6248,63.7616 -64.006,64.3022 -64.4552,65.0015 -64.9588,65.8663 -65.5032,66.9024 -66.0742,68.1147 -66.6575,69.5071 -67.2381,71.0828 -67.8012,72.8438 -68.3315,74.7914 -68.8138,76.9257 -69.2328,79.2459 -69.573,81.7503 -69.8191,84.436 -69.956,87.2993 -69.9687,90.3355 -69.8422,93.5389 -69.5621,96.9027 -69.1141,100.4194 -68.4844,104.0803 -66.4171,105.8951 -64.9351,106.8103 -62.3866,107.8459 -58.8314,106.7693 -55.4865,105.5948 -52.3534,104.3388 -49.4326,103.0172 -46.7236,101.6461 -44.2248,100.2413 -41.9338,98.8183 -39.847,97.3925 -37.9601,95.9788 -36.2678,94.5917 -34.764,93.2453 -33.4416,91.9531 -32.2929,90.7283 -31.3091,89.5832 -30.481,88.5297 -29.7984,87.579 -29.2508,86.7413 -28.8266,86.0266 -28.514,85.4435 -28.3006,85.0004 -28.1734,84.7043 -28.119,84.5616 -22.482,67.6101 0,71.25 0.0002,89.1142 0.0068,89.2667 0.0341,89.5879 0.0968,90.0758 0.2094,90.7276 0.3863,91.5397 0.6417,92.5073 0.9894,93.6249 1.4428,94.8859 2.015,96.2829 2.7186,97.8076 3.5657,99.451 4.5678,101.2032 5.736,103.0534 7.0804,104.9903 8.6107,107.0017 10.3357,109.0748 12.2636,111.1963 14.4015,113.3522 16.7561,115.5279 19.3328,117.7084 22.1362,119.8783 25.1701,122.0217 27.9151,121.8431 29.6103,121.4423 32.1445,120.3726 33.8972,117.0973 35.432,113.9017 36.7592,110.7981 37.89,107.7983 38.836,104.9132 39.6096,102.153 40.2235,99.5268 40.6909,97.043 41.0254,94.7091 41.2412,92.5317 41.3525,90.5162 41.3739,88.6675 41.3201,86.9891 41.206,85.4838 41.0467,84.1533 40.857,82.9984 40.652,82.0188 40.4465,81.2135 40.2552,80.5802 40.0928,80.1159 39.9734,79.8165 39.911,79.6772 31.9104,63.7047 50.3814,50.3814 63.0134,63.0132 63.1259,63.1163 63.3723,63.3241 63.7616,63.6248 64.3022,64.006 65.0015,64.4552 65.8663,64.9588 66.9024,65.5032 68.1147,66.0742 69.5071,66.6575 71.0828,67.2381 72.8438,67.8012 74.7914,68.3315 76.9257,68.8138 79.2459,69.2328 81.7503,69.573 84.436,69.8191 87.2993,69.956 90.3355,69.9687 93.5389,69.8422 96.9027,69.5621 100.4194,69.1141 104.0803,68.4844 105.8951,66.4171 106.8103,64.9351 107.8459,62.3866 106.7693,58.8314 105.5948,55.4865 104.3388,52.3534 103.0172,49.4326 101.6461,46.7236 100.2413,44.2248 98.8183,41.9338 97.3925,39.847 95.9788,37.9601 94.5917,36.2678 93.2453,34.764 91.9531,33.4416 90.7283,32.2929 89.5832,31.3091 88.5297,30.481 87.579,29.7984 86.7413,29.2508 86.0266,28.8266 85.4435,28.514 85.0004,28.3006 84.7043,28.1734 84.5616,28.119 67.6101,22.482 "/><g class="guides"><polyline fill="none" stroke="#444" stroke-width="0.5" stroke-miterlimit="10" points="10,0 -10,0"/><polyline fill="none" stroke="#444" stroke-width="0.5" stroke-miterlimit="10" points="0,10 0,-10"/></g><circle fill="#c00" class="firstmarker" stroke="none" stroke-miterlimit="10" cx="97.3165" cy="-23.0107" r="9.8125"/><g class="geartext"><g class="text"><polyline fill="none" stroke="#444" stroke-width="0.5" stroke-linecap="square" stroke-miterlimit="1"  points="-29.29 -45.71 -30.7 -44.77 -32.08 -43.79 -33.44 -42.77 -34.76 -41.7 "/><polyline fill="none" stroke="#444" stroke-width="0.5" stroke-linecap="square" stroke-miterlimit="1"  points="-30.08 -41.05 -34.09 -46.53 "/><polyline fill="none" stroke="#444" stroke-width="0.5" stroke-linecap="square" stroke-miterlimit="1"  points="-31.12 -48.56 -31.66 -46.17 -32.08 -43.79 -32.39 -41.43 -32.58 -39.09 "/><polyline fill="none" stroke="#444" stroke-width="0.5" stroke-linecap="square" stroke-miterlimit="1"  points="-27.46 -42.85 -29.74 -43.37 -32.08 -43.79 -34.48 -44.1 -36.93 -44.31 "/><polyline fill="none" stroke="#444" stroke-width="0.5" stroke-linecap="square" stroke-miterlimit="1"  points="-20.45 -46.6 -21.17 -44.41 -22.55 -43.73 -24.73 -44.48 -28.02 -50.41 -27.21 -52.77 -25.55 -53.6 -23.18 -52.82 -20.45 -46.6 "/><polyline fill="none" stroke="#444" stroke-width="0.5" stroke-linecap="square" stroke-miterlimit="1"  points="-4.14 -59.23 -3.43 -49.08 -5.22 -51.48 -7.16 -53.81 -9.25 -56.07 -11.49 -58.25 -9.52 -48.27 "/><polyline fill="none" stroke="#444" stroke-width="0.5" stroke-linecap="square" stroke-miterlimit="1"  points="6.57 -55.6 4.83 -55.77 3.09 -55.9 1.34 -55.97 -0.41 -55.98 "/><polyline fill="none" stroke="#444" stroke-width="0.5" stroke-linecap="square" stroke-miterlimit="1"  points="6.17 -52.23 4.54 -52.39 2.9 -52.51 1.26 -52.57 -0.39 -52.59 "/><polyline fill="none" stroke="#444" stroke-width="0.5" stroke-linecap="square" stroke-miterlimit="1"  points="11.39 -53.08 9.42 -51.74 9.12 -50.07 10.32 -48.1 11.82 -47.75 13.31 -47.36 15.29 -48.54 15.8 -50.16 14.68 -52.26 13.04 -52.7 11.39 -53.08 10.03 -55.08 10.34 -56.74 12.46 -58.05 14.27 -57.64 16.06 -57.16 17.33 -55.01 16.82 -53.4 14.68 -52.26 "/><polyline fill="none" stroke="#444" stroke-width="0.5" stroke-linecap="square" stroke-miterlimit="1"  points="27.16 -47 28.61 -46.13 30.04 -45.22 31.44 -44.26 33.83 -44.6 34.86 -45.95 34.39 -48.4 32.86 -49.46 31.3 -50.46 29.7 -51.41 24.61 -42.6 "/><polyline fill="none" stroke="#444" stroke-width="0.5" stroke-linecap="square" stroke-miterlimit="1"  points="32.12 -37.26 36.55 -42.4 "/><polyline fill="none" stroke="#444" stroke-width="0.5" stroke-linecap="square" stroke-miterlimit="1"  points="37.66 -43.69 38.77 -44.97 "/><polyline fill="none" stroke="#444" stroke-width="0.5" stroke-linecap="square" stroke-miterlimit="1"  points="39.83 -31.68 37.53 -31.81 37.78 -34.1 44.07 -39.79 "/><polyline fill="none" stroke="#444" stroke-width="0.5" stroke-linecap="square" stroke-miterlimit="1"  points="43.81 -34.85 42.7 -36.2 41.55 -37.51 40.36 -38.79 39.13 -40.04 "/><polyline fill="none" stroke="#444" stroke-width="0.5" stroke-linecap="square" stroke-miterlimit="1"  points="43.54 -22.91 42.8 -24.26 42.02 -25.58 41.2 -26.88 41.73 -29.13 44.51 -31.07 46.88 -30.59 47.82 -29.11 48.7 -27.6 49.54 -26.07 "/><polyline fill="none" stroke="#444" stroke-width="0.5" stroke-linecap="square" stroke-miterlimit="1"  points="47.98 -21.53 50.2 -20.67 52.41 -19.69 53 -18.04 51.91 -15.88 47.04 -14.39 "/><polyline fill="none" stroke="#444" stroke-width="0.5" stroke-linecap="square" stroke-miterlimit="1"  points="44.88 -20.14 54.17 -24.31 "/><polyline fill="none" stroke="#444" stroke-width="0.5" stroke-linecap="square" stroke-miterlimit="1"  points="49.05 -3.84 49.14 -2.31 49.19 -0.77 49.19 0.77 50.84 2.38 57.62 2.7 59.37 0.93 59.37 -0.93 59.31 -2.78 59.19 -4.63 "/><polyline fill="none" stroke="#444" stroke-width="0.5" stroke-linecap="square" stroke-miterlimit="1"  points="59.31 -2.78 49.14 -2.31 "/><polyline fill="none" stroke="#444" stroke-width="0.5" stroke-linecap="square" stroke-miterlimit="1"  points="54.45 13 54.83 11.29 55.16 9.57 55.43 7.85 55.65 6.11 "/><polyline fill="none" stroke="#444" stroke-width="0.5" stroke-linecap="square" stroke-miterlimit="1"  points="51.15 12.21 51.51 10.61 51.81 8.99 52.07 7.37 52.28 5.74 "/><polyline fill="none" stroke="#444" stroke-width="0.5" stroke-linecap="square" stroke-miterlimit="1"  points="44.88 20.14 45.49 18.73 46.05 17.3 46.57 15.85 47.04 14.39 50.29 15.38 51.39 17.49 50.82 19.09 50.2 20.67 51.07 22.92 52.62 23.62 54.9 22.61 55.58 20.88 56.21 19.13 55.16 16.87 "/><polyline fill="none" stroke="#444" stroke-width="0.5" stroke-linecap="square" stroke-miterlimit="1"  points="43.52 32.45 42.49 33.79 41.41 35.1 40.29 36.38 40.36 38.79 41.58 39.97 44.07 39.79 45.29 38.39 46.47 36.96 47.6 35.49 39.44 29.4 "/><polyline fill="none" stroke="#444" stroke-width="0.5" stroke-linecap="square" stroke-miterlimit="1"  points="32.42 45.64 33.83 44.6 35.21 43.52 36.55 42.4 37.86 41.24 "/><polyline fill="none" stroke="#444" stroke-width="0.5" stroke-linecap="square" stroke-miterlimit="1"  points="30.46 42.87 31.78 41.9 33.07 40.89 34.34 39.83 35.56 38.74 "/><polyline fill="none" stroke="#444" stroke-width="0.5" stroke-linecap="square" stroke-miterlimit="1"  points="21.93 47.8 23.41 47.09 24.87 46.33 26.31 45.54 27.72 44.69 27.44 47.49 27.01 50.32 26.44 53.17 21.9 44.05 "/><polyline fill="none" stroke="#444" stroke-width="0.5" stroke-linecap="square" stroke-miterlimit="1"  points="11.39 53.08 9.73 53.41 8.05 53.68 6.37 53.91 4.83 55.77 4.98 57.46 6.97 58.96 8.81 58.72 10.64 58.41 12.46 58.05 10.32 48.1 "/><polyline fill="none" stroke="#444" stroke-width="0.5" stroke-linecap="square" stroke-miterlimit="1"  points="1.18 49.18 1.26 52.57 -0.41 55.98 -2.29 59.33 -3.91 55.85 -5.31 52.32 -4.96 48.95 "/><polyline fill="none" stroke="#444" stroke-width="0.5" stroke-linecap="square" stroke-miterlimit="1"  points="1.26 52.57 -0.39 52.59 -2.03 52.55 -3.67 52.46 -5.31 52.32 "/><polyline fill="none" stroke="#444" stroke-width="0.5" stroke-linecap="square" stroke-miterlimit="1"  points="-15.93 53.67 -14.25 54.14 -12.55 54.56 -10.84 54.92 -9.12 55.23 "/><polyline fill="none" stroke="#444" stroke-width="0.5" stroke-linecap="square" stroke-miterlimit="1"  points="-14.97 50.41 -13.38 50.86 -11.79 51.25 -10.18 51.59 -8.56 51.89 "/><polyline fill="none" stroke="#444" stroke-width="0.5" stroke-linecap="square" stroke-miterlimit="1"  points="-22.55 43.73 -21.17 44.41 -19.77 45.05 -18.35 45.64 -16.92 46.2 -18.09 49.38 -20.25 50.37 -21.82 49.71 -23.36 49 -25.66 49.76 -26.43 51.26 -25.55 53.6 -23.86 54.37 -22.15 55.09 -19.84 54.16 "/><polyline fill="none" stroke="#444" stroke-width="0.5" stroke-linecap="square" stroke-miterlimit="1"  points="-30.45 50.97 -32.03 49.99 -33.58 48.97 -35.09 47.9 -36.57 46.78 -32.08 43.79 -27.82 40.57 "/></g></g><g class="guides gearguides" opacity="0.2"><circle class="pitch" fill="none" stroke="#f00" stroke-miterlimit="10" cx="0" cy="0" r="100"/><circle class="outer" fill="none" stroke="#ccc" stroke-miterlimit="10" stroke-dasharray="2,2" cx="0" cy="0" r="125"/><circle class="base" fill="none" stroke="#00f" stroke-miterlimit="10" stroke-dasharray="2,2" cx="0" cy="0" r="89.1"/></g></svg>